<?xml version="1.0" standalone="no"?><!-- Generator: Gravit.io --><svg xmlns="http://www.w3.org/2000/svg" xmlns:xlink="http://www.w3.org/1999/xlink" style="isolation:isolate" viewBox="0 0 32 32" width="32" height="32"><defs><clipPath id="_clipPath_09NNnFFe0Ru6b4kFBXugISTPsshRy4xi"><rect width="32" height="32"/></clipPath></defs><g clip-path="url(#_clipPath_09NNnFFe0Ru6b4kFBXugISTPsshRy4xi)"><path d=" M 15.926 30.602 Q 27.201 14.489 25.73 13.482 Q 26.466 4.042 15.926 1.398 Q 5.632 3.916 6.122 13.482 Q 7.103 21.161 15.926 30.602 Z " fill="rgb(0,100,150)"/><g id="Group"><path d=" M 16 31.204 L 15.421 30.497 C 15.036 29.982 5.2 18.475 5.2 11.596 C 5.2 5.618 10.086 0.796 16 0.796 C 21.914 0.796 26.8 5.682 26.8 11.596 C 26.8 18.475 16.964 30.047 16.579 30.497 L 16 31.204 L 16 31.204 Z  M 16 2.275 C 10.857 2.275 6.743 6.453 6.743 11.532 C 6.743 16.932 13.879 26.125 16 28.761 C 17.422 26.994 21.099 22.308 23.367 17.765 C 24.482 15.532 25.257 13.333 25.257 11.532 C 25.257 6.453 21.143 2.275 16 2.275 L 16 2.275 Z " fill="rgb(232,232,232)"/><path d=" M 16 15.711 C 13.75 15.711 11.886 13.846 11.886 11.596 C 11.886 9.346 13.75 7.482 16 7.482 C 18.25 7.482 20.114 9.346 20.114 11.596 C 20.114 13.846 18.25 15.711 16 15.711 L 16 15.711 Z  M 16 9.025 C 14.586 9.025 13.429 10.182 13.429 11.596 C 13.429 13.011 14.586 14.168 16 14.168 C 17.414 14.168 18.571 13.011 18.571 11.596 C 18.571 10.182 17.414 9.025 16 9.025 L 16 9.025 Z " fill="rgb(255,255,255)"/></g></g></svg>